<svg width="35" height="35" viewBox="0 0 35 35" fill="none" xmlns="http://www.w3.org/2000/svg">
<path opacity="0.2" fill-rule="evenodd" clip-rule="evenodd" d="M17.5 29.75C24.2655 29.75 29.75 24.2655 29.75 17.5C29.75 10.7345 24.2655 5.25 17.5 5.25C10.7345 5.25 5.25 10.7345 5.25 17.5C5.25 24.2655 10.7345 29.75 17.5 29.75ZM17.5 35C27.165 35 35 27.165 35 17.5C35 7.83502 27.165 0 17.5 0C7.83502 0 0 7.83502 0 17.5C0 27.165 7.83502 35 17.5 35Z" fill="#5428F1"/>
<path d="M17.5 35C27.165 35 35 27.165 35 17.5H29.75C29.75 24.2655 24.2655 29.75 17.5 29.75V35Z" fill="#5428F1"/>
<path d="M0 17.5C0 7.83502 7.83502 0 17.5 0V5.25C10.7345 5.25 5.25 10.7345 5.25 17.5H0Z" fill="#5428F1"/>
</svg>
