<svg width="15" height="17" viewBox="0 0 15 17" fill="none" xmlns="http://www.w3.org/2000/svg">
<path d="M14.6856 13.2482C14.4163 13.8421 14.0975 14.3888 13.7282 14.8914C13.2248 15.5767 12.8125 16.051 12.4949 16.3144C12.0024 16.7467 11.4748 16.9681 10.9098 16.9807C10.5042 16.9807 10.015 16.8705 9.44563 16.647C8.87436 16.4245 8.34937 16.3144 7.86934 16.3144C7.3659 16.3144 6.82596 16.4245 6.24843 16.647C5.67001 16.8705 5.20405 16.987 4.84779 16.9985C4.30599 17.0206 3.76594 16.7929 3.22688 16.3144C2.88282 16.0279 2.45248 15.5368 1.93694 14.8411C1.38381 14.0981 0.929063 13.2366 0.572805 12.2544C0.191265 11.1935 0 10.1662 0 9.17164C0 8.03236 0.257878 7.04975 0.774403 6.22633C1.18035 5.56492 1.72039 5.04318 2.39631 4.66017C3.07222 4.27716 3.80254 4.08198 4.58904 4.06949C5.01938 4.06949 5.58372 4.19657 6.28503 4.44631C6.98435 4.6969 7.43339 4.82397 7.63026 4.82397C7.77744 4.82397 8.27627 4.67538 9.1219 4.37915C9.92159 4.10443 10.5965 3.99068 11.1494 4.03549C12.6477 4.15092 13.7733 4.71474 14.5218 5.73051C13.1819 6.50556 12.5191 7.59111 12.5322 8.9837C12.5443 10.0684 12.9565 10.9711 13.7667 11.6878C14.1338 12.0204 14.5438 12.2775 15 12.4601C14.9011 12.734 14.7966 12.9963 14.6856 13.2482ZM11.2495 0.340097C11.2495 1.19029 10.9241 1.98411 10.2755 2.71887C9.49289 3.59235 8.54624 4.09709 7.51968 4.01744C7.5066 3.91544 7.49901 3.8081 7.49901 3.69529C7.49901 2.87911 7.87121 2.00563 8.53217 1.29144C8.86216 0.929832 9.28184 0.629161 9.79078 0.389311C10.2986 0.153039 10.779 0.0223756 11.2308 0C11.244 0.113658 11.2495 0.227323 11.2495 0.340086V0.340097Z" fill="black"/>
</svg>
