<svg width="17" height="17" viewBox="0 0 17 17" fill="none" xmlns="http://www.w3.org/2000/svg">
<path fill-rule="evenodd" clip-rule="evenodd" d="M16.66 8.69318C16.66 8.09045 16.6059 7.51091 16.5055 6.95454H8.5V10.2425H13.0745C12.8775 11.305 12.2786 12.2052 11.3784 12.808V14.9407H14.1255C15.7327 13.4609 16.66 11.2818 16.66 8.69318Z" fill="#4285F4"/>
<path fill-rule="evenodd" clip-rule="evenodd" d="M8.49992 16.9999C10.7949 16.9999 12.719 16.2387 14.1254 14.9405L11.3783 12.8078C10.6172 13.3178 9.64356 13.6192 8.49992 13.6192C6.28606 13.6192 4.4122 12.124 3.74379 10.1149H0.904015V12.3171C2.30265 15.0951 5.1772 16.9999 8.49992 16.9999Z" fill="#34A853"/>
<path fill-rule="evenodd" clip-rule="evenodd" d="M3.74386 10.115C3.57386 9.60504 3.47727 9.06027 3.47727 8.50004C3.47727 7.93982 3.57386 7.39504 3.74386 6.88504V4.68277H0.904091C0.328409 5.83027 0 7.12845 0 8.50004C0 9.87163 0.328409 11.1698 0.904091 12.3173L3.74386 10.115Z" fill="#FBBC05"/>
<path fill-rule="evenodd" clip-rule="evenodd" d="M8.49992 3.38068C9.74788 3.38068 10.8683 3.80955 11.7492 4.65182L14.1872 2.21386C12.7152 0.842273 10.7911 0 8.49992 0C5.1772 0 2.30265 1.90477 0.904015 4.68273L3.74379 6.885C4.4122 4.87591 6.28606 3.38068 8.49992 3.38068Z" fill="#EA4335"/>
</svg>
