<svg width="74" height="74" viewBox="0 0 74 74" fill="none" xmlns="http://www.w3.org/2000/svg">
<path d="M37 74C57.4345 74 74 57.4345 74 37C74 16.5655 57.4345 0 37 0C16.5655 0 0 16.5655 0 37C0 57.4345 16.5655 74 37 74Z" fill="#F5E2E2"/>
<path d="M36.9999 47.6667V37M36.9999 26.3333H37.0266M63.6666 37C63.6666 51.7276 51.7275 63.6667 36.9999 63.6667C22.2723 63.6667 10.3333 51.7276 10.3333 37C10.3333 22.2724 22.2723 10.3333 36.9999 10.3333C51.7275 10.3333 63.6666 22.2724 63.6666 37Z" stroke="#DE172E" stroke-width="7" stroke-linecap="round" stroke-linejoin="round"/>
</svg>
