<svg width="22" height="22" viewBox="0 0 22 22" fill="none" xmlns="http://www.w3.org/2000/svg">
<path fill-rule="evenodd" clip-rule="evenodd" d="M5.14637 9.21008C5.14637 5.89638 7.9401 3.21009 11.3864 3.21008C14.8326 3.21007 17.6264 5.89637 17.6264 9.21008V12.9325C17.6264 13.3754 17.8094 13.8002 18.1351 14.1134L18.6664 14.6243V15.2101H4.10637L4.10637 14.6243L4.63762 14.1135L3.91513 13.4188L4.63762 14.1135C4.96337 13.8003 5.14637 13.3755 5.14637 12.9325V9.21008ZM11.3863 1.21008C6.79135 1.21009 3.06637 4.79181 3.06637 9.21008V12.7959L2.63559 13.2101L3.30094 13.8499L2.63559 13.2101C2.24551 13.5852 2.02637 14.0939 2.02637 14.6243V15.2101C2.02637 16.3147 2.95762 17.2101 4.10637 17.2101L7.22637 17.2101C7.22637 19.4193 9.08886 21.2101 11.3864 21.2101C13.6839 21.2101 15.5464 19.4193 15.5464 17.2101L18.6664 17.2101C19.8151 17.2101 20.7464 16.3147 20.7464 15.2101V14.6243C20.7464 14.0939 20.5272 13.5852 20.1372 13.2101L19.7064 12.7959V9.21008C19.7064 4.7918 15.9814 1.21007 11.3863 1.21008ZM11.3864 19.2101C10.2376 19.2101 9.30637 18.3147 9.30637 17.2101H13.4664C13.4664 18.3147 12.5351 19.2101 11.3864 19.2101Z" fill="#0C1022"/>
<path fill-rule="evenodd" clip-rule="evenodd" d="M16.8147 0.621936C17.1604 0.180862 17.8125 0.0927422 18.2712 0.425116C19.849 1.56836 21.092 3.08502 21.8792 4.82739C22.108 5.33394 21.8665 5.92297 21.3396 6.14302C20.8128 6.36306 20.2002 6.1308 19.9714 5.62425C19.3274 4.19867 18.3103 2.95777 17.0194 2.02239C16.5607 1.69001 16.469 1.06301 16.8147 0.621936Z" fill="#0C1022"/>
<path fill-rule="evenodd" clip-rule="evenodd" d="M5.95821 0.621966C6.30388 1.06304 6.21224 1.69004 5.75352 2.02242C4.46257 2.9578 3.44556 4.1987 2.80152 5.62428C2.57268 6.13083 1.96009 6.36309 1.43327 6.14305C0.906454 5.923 0.664902 5.33397 0.89375 4.82742C1.68091 3.08505 2.92392 1.56839 4.50174 0.425146C4.96046 0.0927728 5.61254 0.180892 5.95821 0.621966Z" fill="#0C1022"/>
</svg>
